<svg width="1369" height="945" viewBox="0 0 1369 945" fill="none" xmlns="http://www.w3.org/2000/svg">
<g clip-path="url(#clip0_25_2086)">
<path d="M-141 -75H-193V-28.2M-141 -75V-28.2M-141 -75H-89M-141 -28.2H-193M-141 -28.2H-89M-141 -28.2V18.6M-193 -28.2V18.6M-89 -75V-28.2M-89 -75H-37M-89 -28.2H-37M-89 -28.2V18.6M-37 -75V-28.2M-37 -75H15M-37 -28.2H15M-37 -28.2V18.6M15 -75V-28.2M15 -75H67M15 -28.2H67M15 -28.2V18.6M67 -75V-28.2M67 -75H119M67 -28.2H119M67 -28.2V18.6M119 -75V-28.2M119 -75H171M119 -28.2H171M119 -28.2V18.6M171 -75V-28.2M171 -75H223M171 -28.2H223M171 -28.2V18.6M223 -75V-28.2M223 -75H275M223 -28.2H275M223 -28.2V18.6M275 -75V-28.2M275 -75H327M275 -28.2H327M275 -28.2V18.6M327 -75V-28.2M327 -75H379M327 -28.2H379M327 -28.2V18.6M379 -75V-28.2M379 -75H431M379 -28.2H431M379 -28.2V18.6M431 -75V-28.2M431 -75H483M431 -28.2H483M431 -28.2V18.6M483 -75V-28.2M483 -75H535M483 -28.2H535M483 -28.2V18.6M535 -75V-28.2M535 -75H587M535 -28.2H587M535 -28.2V18.6M587 -75V-28.2M587 -75H639M587 -28.2H639M587 -28.2V18.6M639 -75V-28.2M639 -75H691M639 -28.2H691M639 -28.2V18.6M691 -75V-28.2M691 -75H743M691 -28.2V18.6M691 -28.2H743M-141 18.6H-193M-141 18.6H-89M-141 18.6V65.4M-193 18.6V65.4M-89 18.6H-37M-89 18.6V65.4M-37 18.6H15M-37 18.6V65.4M15 18.6H67M15 18.6V65.4M67 18.6H119M67 18.6V65.4M119 18.6H171M119 18.6V65.4M171 18.6H223M171 18.6V65.4M223 18.6H275M223 18.6V65.4M275 18.6H327M275 18.6V65.4M327 18.6H379M327 18.6V65.4M379 18.6H431M379 18.6V65.4M431 18.6H483M431 18.6V65.4M483 18.6H535M483 18.6V65.4M535 18.6H587M535 18.6V65.4M587 18.6H639M587 18.6V65.4M639 18.6H691M639 18.6V65.4M691 18.6V65.4M691 18.6H743M-141 65.4H-193M-141 65.4H-89M-141 65.4V112.2M-193 65.4V112.2M-89 65.4H-37M-89 65.4V112.2M-37 65.4H15M-37 65.4V112.2M15 65.4H67M15 65.4V112.2M67 65.4H119M67 65.4V112.2M119 65.4H171M119 65.4V112.2M171 65.4H223M171 65.4V112.2M223 65.4H275M223 65.4V112.2M275 65.4H327M275 65.4V112.2M327 65.4H379M327 65.4V112.2M379 65.4H431M379 65.4V112.2M431 65.4H483M431 65.4V112.2M483 65.4H535M483 65.4V112.2M535 65.4H587M535 65.4V112.2M587 65.4H639M587 65.4V112.2M639 65.4H691M639 65.4V112.2M691 65.4V112.2M691 65.4H743M-141 112.2H-193M-141 112.2H-89M-141 112.2V159M-193 112.2V159M-89 112.2H-37M-89 112.2V159M-37 112.2H15M-37 112.2V159M15 112.2H67M15 112.2V159M67 112.2H119M67 112.2V159M119 112.2H171M119 112.2V159M171 112.2H223M171 112.2V159M223 112.2H275M223 112.2V159M275 112.2H327M275 112.2V159M327 112.2H379M327 112.2V159M379 112.2H431M379 112.2V159M431 112.2H483M431 112.2V159M483 112.2H535M483 112.2V159M535 112.2H587M535 112.2V159M587 112.2H639M587 112.2V159M639 112.2H691M639 112.2V159M691 112.2V159M691 112.2H743M-141 159H-193M-141 159H-89M-141 159V205.8M-193 159V205.8M-89 159H-37M-89 159V205.8M-37 159H15M-37 159V205.8M15 159H67M15 159V205.8M67 159H119M67 159V205.8M119 159H171M119 159V205.8M171 159H223M171 159V205.8M223 159H275M223 159V205.8M275 159H327M275 159V205.8M327 159H379M327 159V205.8M379 159H431M379 159V205.8M431 159H483M431 159V205.8M483 159H535M483 159V205.8M535 159H587M535 159V205.8M587 159H639M587 159V205.8M639 159H691M639 159V205.8M691 159V205.8M691 159H743M-141 205.8H-193M-141 205.8H-89M-141 205.8V252.6M-193 205.8V252.6M-89 205.8H-37M-89 205.8V252.6M-37 205.8H15M-37 205.8V252.6M15 205.8H67M15 205.8V252.6M67 205.8H119M67 205.8V252.6M119 205.8H171M119 205.8V252.6M171 205.8H223M171 205.8V252.6M223 205.8H275M223 205.8V252.6M275 205.8H327M275 205.8V252.6M327 205.8H379M327 205.8V252.6M379 205.8H431M379 205.8V252.6M431 205.8H483M431 205.8V252.6M483 205.8H535M483 205.8V252.6M535 205.8H587M535 205.8V252.6M587 205.8H639M587 205.8V252.6M639 205.8H691M639 205.8V252.6M691 205.8V252.6M691 205.8H743M-141 252.6H-193M-141 252.6H-89M-141 252.6V299.4M-193 252.6V299.4M-89 252.6H-37M-89 252.6V299.4M-37 252.6H15M-37 252.6V299.4M15 252.6H67M15 252.6V299.4M67 252.6H119M67 252.6V299.4M119 252.6H171M119 252.6V299.4M171 252.6H223M171 252.6V299.4M223 252.6H275M223 252.6V299.4M275 252.6H327M275 252.6V299.4M327 252.6H379M327 252.6V299.4M379 252.6H431M379 252.6V299.4M431 252.6H483M431 252.6V299.4M483 252.6H535M483 252.6V299.4M535 252.6H587M535 252.6V299.4M587 252.6H639M587 252.6V299.4M639 252.6H691M639 252.6V299.4M691 252.6V299.4M691 252.6H743M-141 299.4H-193M-141 299.4H-89M-141 299.4V346.2M-193 299.4V346.2M-89 299.4H-37M-89 299.4V346.2M-37 299.4H15M-37 299.4V346.2M15 299.4H67M15 299.4V346.2M67 299.4H119M67 299.4V346.2M119 299.4H171M119 299.4V346.2M171 299.4H223M171 299.4V346.2M223 299.4H275M223 299.4V346.2M275 299.4H327M275 299.4V346.2M327 299.4H379M327 299.4V346.2M379 299.4H431M379 299.4V346.2M431 299.4H483M431 299.4V346.2M483 299.4H535M483 299.4V346.2M535 299.4H587M535 299.4V346.2M587 299.4H639M587 299.4V346.2M639 299.4H691M639 299.4V346.2M691 299.4V346.2M691 299.4H743M-141 346.2H-193M-141 346.2H-89M-141 346.2V393M-193 346.2V393M-89 346.2H-37M-89 346.2V393M-37 346.2H15M-37 346.2V393M15 346.2H67M15 346.2V393M67 346.2H119M67 346.2V393M119 346.2H171M119 346.2V393M171 346.2H223M171 346.2V393M223 346.2H275M223 346.2V393M275 346.2H327M275 346.2V393M327 346.2H379M327 346.2V393M379 346.2H431M379 346.2V393M431 346.2H483M431 346.2V393M483 346.2H535M483 346.2V393M535 346.2H587M535 346.2V393M587 346.2H639M587 346.2V393M639 346.2H691M639 346.2V393M691 346.2V393M691 346.2H743M-141 393H-193M-141 393H-89M-141 393V439.8M-193 393V439.8M-89 393H-37M-89 393V439.8M-37 393H15M-37 393V439.8M15 393H67M15 393V439.8M67 393H119M67 393V439.8M119 393H171M119 393V439.8M171 393H223M171 393V439.8M223 393H275M223 393V439.8M275 393H327M275 393V439.8M327 393H379M327 393V439.8M379 393H431M379 393V439.8M431 393H483M431 393V439.8M483 393H535M483 393V439.8M535 393H587M535 393V439.8M587 393H639M587 393V439.8M639 393H691M639 393V439.8M691 393V439.8M691 393H743M-141 439.8H-193M-141 439.8H-89M-141 439.8V486.6M-193 439.8V486.6H-141M-89 439.8H-37M-89 439.8V486.6M-37 439.8H15M-37 439.8V486.6M15 439.8H67M15 439.8V486.6M67 439.8H119M67 439.8V486.6M119 439.8H171M119 439.8V486.6M171 439.8H223M171 439.8V486.6M223 439.8H275M223 439.8V486.6M275 439.8H327M275 439.8V486.6M327 439.8H379M327 439.8V486.6M379 439.8H431M379 439.8V486.6M431 439.8H483M431 439.8V486.6M483 439.8H535M483 439.8V486.6M535 439.8H587M535 439.8V486.6M587 439.8H639M587 439.8V486.6M639 439.8H691M639 439.8V486.6M691 439.8V486.6M691 439.8H743M-141 486.6H-89M-89 486.6H-37M-37 486.6H15M15 486.6H67M67 486.6H119M119 486.6H171M171 486.6H223M223 486.6H275M275 486.6H327M327 486.6H379M379 486.6H431M431 486.6H483M483 486.6H535M535 486.6H587M587 486.6H639M639 486.6H691M691 486.6H743M-141 486.4H-193V533.2M-141 486.4V533.2M-141 486.4H-89M-141 533.2H-193M-141 533.2H-89M-141 533.2V580M-193 533.2V580M-89 486.4V533.2M-89 486.4H-37M-89 533.2H-37M-89 533.2V580M-37 486.4V533.2M-37 486.4H15M-37 533.2H15M-37 533.2V580M15 486.4V533.2M15 486.4H67M15 533.2H67M15 533.2V580M67 486.4V533.2M67 486.4H119M67 533.2H119M67 533.2V580M119 486.4V533.2M119 486.4H171M119 533.2H171M119 533.2V580M171 486.4V533.2M171 486.4H223M171 533.2H223M171 533.2V580M223 486.4V533.2M223 486.4H275M223 533.2H275M223 533.2V580M275 486.4V533.2M275 486.4H327M275 533.2H327M275 533.2V580M327 486.4V533.2M327 486.4H379M327 533.2H379M327 533.2V580M379 486.4V533.2M379 486.4H431M379 533.2H431M379 533.2V580M431 486.4V533.2M431 486.4H483M431 533.2H483M431 533.2V580M483 486.4V533.2M483 486.4H535M483 533.2H535M483 533.2V580M535 486.4V533.2M535 486.4H587M535 533.2H587M535 533.2V580M587 486.4V533.2M587 486.4H639M587 533.2H639M587 533.2V580M639 486.4V533.2M639 486.4H691M639 533.2H691M639 533.2V580M691 486.4V533.2M691 486.4H743M691 533.2V580M691 533.2H743M-141 580H-193M-141 580H-89M-141 580V626.8M-193 580V626.8M-89 580H-37M-89 580V626.8M-37 580H15M-37 580V626.8M15 580H67M15 580V626.8M67 580H119M67 580V626.8M119 580H171M119 580V626.8M171 580H223M171 580V626.8M223 580H275M223 580V626.8M275 580H327M275 580V626.8M327 580H379M327 580V626.8M379 580H431M379 580V626.8M431 580H483M431 580V626.8M483 580H535M483 580V626.8M535 580H587M535 580V626.8M587 580H639M587 580V626.8M639 580H691M639 580V626.8M691 580V626.8M691 580H743M-141 626.8H-193M-141 626.8H-89M-141 626.8V673.6M-193 626.8V673.6M-89 626.8H-37M-89 626.8V673.6M-37 626.8H15M-37 626.8V673.6M15 626.8H67M15 626.8V673.6M67 626.8H119M67 626.8V673.6M119 626.8H171M119 626.8V673.6M171 626.8H223M171 626.8V673.6M223 626.8H275M223 626.8V673.6M275 626.8H327M275 626.8V673.6M327 626.8H379M327 626.8V673.6M379 626.8H431M379 626.8V673.6M431 626.8H483M431 626.8V673.6M483 626.8H535M483 626.8V673.6M535 626.8H587M535 626.8V673.6M587 626.8H639M587 626.8V673.6M639 626.8H691M639 626.8V673.6M691 626.8V673.6M691 626.8H743M-141 673.6H-193M-141 673.6H-89M-141 673.6V720.4M-193 673.6V720.4M-89 673.6H-37M-89 673.6V720.4M-37 673.6H15M-37 673.6V720.4M15 673.6H67M15 673.6V720.4M67 673.6H119M67 673.6V720.4M119 673.6H171M119 673.6V720.4M171 673.6H223M171 673.6V720.4M223 673.6H275M223 673.6V720.4M275 673.6H327M275 673.6V720.4M327 673.6H379M327 673.6V720.4M379 673.6H431M379 673.6V720.4M431 673.6H483M431 673.6V720.4M483 673.6H535M483 673.6V720.4M535 673.6H587M535 673.6V720.4M587 673.6H639M587 673.6V720.4M639 673.6H691M639 673.6V720.4M691 673.6V720.4M691 673.6H743M-141 720.4H-193M-141 720.4H-89M-141 720.4V767.2M-193 720.4V767.2M-89 720.4H-37M-89 720.4V767.2M-37 720.4H15M-37 720.4V767.2M15 720.4H67M15 720.4V767.2M67 720.4H119M67 720.4V767.2M119 720.4H171M119 720.4V767.2M171 720.4H223M171 720.4V767.2M223 720.4H275M223 720.4V767.2M275 720.4H327M275 720.4V767.2M327 720.4H379M327 720.4V767.2M379 720.4H431M379 720.4V767.2M431 720.4H483M431 720.4V767.2M483 720.4H535M483 720.4V767.2M535 720.4H587M535 720.4V767.2M587 720.4H639M587 720.4V767.2M639 720.4H691M639 720.4V767.2M691 720.4V767.2M691 720.4H743M-141 767.2H-193M-141 767.2H-89M-141 767.2V814M-193 767.2V814M-89 767.2H-37M-89 767.2V814M-37 767.2H15M-37 767.2V814M15 767.2H67M15 767.2V814M67 767.2H119M67 767.2V814M119 767.2H171M119 767.2V814M171 767.2H223M171 767.2V814M223 767.2H275M223 767.2V814M275 767.2H327M275 767.2V814M327 767.2H379M327 767.2V814M379 767.2H431M379 767.2V814M431 767.2H483M431 767.2V814M483 767.2H535M483 767.2V814M535 767.2H587M535 767.2V814M587 767.2H639M587 767.2V814M639 767.2H691M639 767.2V814M691 767.2V814M691 767.2H743M-141 814H-193M-141 814H-89M-141 814V860.8M-193 814V860.8M-89 814H-37M-89 814V860.8M-37 814H15M-37 814V860.8M15 814H67M15 814V860.8M67 814H119M67 814V860.8M119 814H171M119 814V860.8M171 814H223M171 814V860.8M223 814H275M223 814V860.8M275 814H327M275 814V860.8M327 814H379M327 814V860.8M379 814H431M379 814V860.8M431 814H483M431 814V860.8M483 814H535M483 814V860.8M535 814H587M535 814V860.8M587 814H639M587 814V860.8M639 814H691M639 814V860.8M691 814V860.8M691 814H743M-141 860.8H-193M-141 860.8H-89M-141 860.8V907.6M-193 860.8V907.6M-89 860.8H-37M-89 860.8V907.6M-37 860.8H15M-37 860.8V907.6M15 860.8H67M15 860.8V907.6M67 860.8H119M67 860.8V907.6M119 860.8H171M119 860.8V907.6M171 860.8H223M171 860.8V907.6M223 860.8H275M223 860.8V907.6M275 860.8H327M275 860.8V907.6M327 860.8H379M327 860.8V907.6M379 860.8H431M379 860.8V907.6M431 860.8H483M431 860.8V907.6M483 860.8H535M483 860.8V907.6M535 860.8H587M535 860.8V907.6M587 860.8H639M587 860.8V907.6M639 860.8H691M639 860.8V907.6M691 860.8V907.6M691 860.8H743M-141 907.6H-193M-141 907.6H-89M-141 907.6V954.4M-193 907.6V954.4M-89 907.6H-37M-89 907.6V954.4M-37 907.6H15M-37 907.6V954.4M15 907.6H67M15 907.6V954.4M67 907.6H119M67 907.6V954.4M119 907.6H171M119 907.6V954.4M171 907.6H223M171 907.6V954.4M223 907.6H275M223 907.6V954.4M275 907.6H327M275 907.6V954.4M327 907.6H379M327 907.6V954.4M379 907.6H431M379 907.6V954.4M431 907.6H483M431 907.6V954.4M483 907.6H535M483 907.6V954.4M535 907.6H587M535 907.6V954.4M587 907.6H639M587 907.6V954.4M639 907.6H691M639 907.6V954.4M691 907.6V954.4M691 907.6H743M-141 954.4H-193M-141 954.4H-89M-141 954.4V1001.2M-193 954.4V1001.2M-89 954.4H-37M-89 954.4V1001.2M-37 954.4H15M-37 954.4V1001.2M15 954.4H67M15 954.4V1001.2M67 954.4H119M67 954.4V1001.2M119 954.4H171M119 954.4V1001.2M171 954.4H223M171 954.4V1001.2M223 954.4H275M223 954.4V1001.2M275 954.4H327M275 954.4V1001.2M327 954.4H379M327 954.4V1001.2M379 954.4H431M379 954.4V1001.2M431 954.4H483M431 954.4V1001.2M483 954.4H535M483 954.4V1001.2M535 954.4H587M535 954.4V1001.2M587 954.4H639M587 954.4V1001.2M639 954.4H691M639 954.4V1001.2M691 954.4V1001.2M691 954.4H743M-141 1001.2H-193M-141 1001.2H-89M-141 1001.2V1048M-193 1001.2V1048H-141M-89 1001.2H-37M-89 1001.2V1048M-37 1001.2H15M-37 1001.2V1048M15 1001.2H67M15 1001.2V1048M67 1001.2H119M67 1001.2V1048M119 1001.2H171M119 1001.2V1048M171 1001.2H223M171 1001.2V1048M223 1001.2H275M223 1001.2V1048M275 1001.2H327M275 1001.2V1048M327 1001.2H379M327 1001.2V1048M379 1001.2H431M379 1001.2V1048M431 1001.2H483M431 1001.2V1048M483 1001.2H535M483 1001.2V1048M535 1001.2H587M535 1001.2V1048M587 1001.2H639M587 1001.2V1048M639 1001.2H691M639 1001.2V1048M691 1001.2V1048M691 1001.2H743M-141 1048H-89M-89 1048H-37M-37 1048H15M15 1048H67M67 1048H119M119 1048H171M171 1048H223M223 1048H275M275 1048H327M327 1048H379M379 1048H431M431 1048H483M483 1048H535M535 1048H587M587 1048H639M639 1048H691M691 1048H743M743 -75V-28.2M743 -75H795M743 -28.2H795M743 -28.2V18.6M795 -75V-28.2M795 -75H847M795 -28.2H847M795 -28.2V18.6M847 -75V-28.2M847 -75H899M847 -28.2H899M847 -28.2V18.6M899 -75V-28.2M899 -75H951M899 -28.2H951M899 -28.2V18.6M951 -75V-28.2M951 -75H1003M951 -28.2H1003M951 -28.2V18.6M1003 -75V-28.2M1003 -75H1055M1003 -28.2H1055M1003 -28.2V18.6M1055 -75V-28.2M1055 -75H1107M1055 -28.2H1107M1055 -28.2V18.6M1107 -75V-28.2M1107 -75H1159M1107 -28.2H1159M1107 -28.2V18.6M1159 -75V-28.2M1159 -75H1211M1159 -28.2H1211M1159 -28.2V18.6M1211 -75V-28.2M1211 -75H1263M1211 -28.2H1263M1211 -28.2V18.6M1263 -75V-28.2M1263 -75H1315M1263 -28.2H1315M1263 -28.2V18.6M1315 -75V-28.2M1315 -75H1367M1315 -28.2H1367M1315 -28.2V18.6M1367 -75V-28.2M1367 -75H1419M1367 -28.2H1419M1367 -28.2V18.6M1419 -75V-28.2M1419 -75H1471M1419 -28.2H1471M1419 -28.2V18.6M1471 -75V-28.2M1471 -75H1523M1471 -28.2H1523M1471 -28.2V18.6M1523 -75V-28.2M1523 -75H1575V-28.2M1523 -28.2H1575M1523 -28.2V18.6M1575 -28.2V18.6M743 18.6H795M743 18.6V65.4M795 18.6H847M795 18.6V65.4M847 18.6H899M847 18.6V65.4M899 18.6H951M899 18.6V65.4M951 18.6H1003M951 18.6V65.4M1003 18.6H1055M1003 18.6V65.4M1055 18.6H1107M1055 18.6V65.4M1107 18.6H1159M1107 18.6V65.4M1159 18.6H1211M1159 18.6V65.4M1211 18.6H1263M1211 18.6V65.4M1263 18.6H1315M1263 18.6V65.4M1315 18.6H1367M1315 18.6V65.4M1367 18.6H1419M1367 18.6V65.4M1419 18.6H1471M1419 18.6V65.4M1471 18.6H1523M1471 18.6V65.4M1523 18.6H1575M1523 18.6V65.4M1575 18.6V65.4M743 65.4H795M743 65.4V112.2M795 65.4H847M795 65.4V112.2M847 65.4H899M847 65.4V112.2M899 65.4H951M899 65.4V112.2M951 65.4H1003M951 65.4V112.2M1003 65.4H1055M1003 65.4V112.2M1055 65.4H1107M1055 65.4V112.2M1107 65.4H1159M1107 65.4V112.2M1159 65.4H1211M1159 65.4V112.2M1211 65.4H1263M1211 65.4V112.2M1263 65.4H1315M1263 65.4V112.2M1315 65.4H1367M1315 65.4V112.2M1367 65.4H1419M1367 65.4V112.2M1419 65.4H1471M1419 65.4V112.2M1471 65.4H1523M1471 65.4V112.2M1523 65.4H1575M1523 65.4V112.2M1575 65.4V112.2M743 112.2H795M743 112.2V159M795 112.2H847M795 112.2V159M847 112.2H899M847 112.2V159M899 112.2H951M899 112.2V159M951 112.2H1003M951 112.2V159M1003 112.2H1055M1003 112.2V159M1055 112.2H1107M1055 112.2V159M1107 112.2H1159M1107 112.2V159M1159 112.2H1211M1159 112.2V159M1211 112.2H1263M1211 112.2V159M1263 112.2H1315M1263 112.2V159M1315 112.2H1367M1315 112.2V159M1367 112.2H1419M1367 112.2V159M1419 112.2H1471M1419 112.2V159M1471 112.2H1523M1471 112.2V159M1523 112.2H1575M1523 112.2V159M1575 112.2V159M743 159H795M743 159V205.8M795 159H847M795 159V205.8M847 159H899M847 159V205.8M899 159H951M899 159V205.8M951 159H1003M951 159V205.8M1003 159H1055M1003 159V205.8M1055 159H1107M1055 159V205.8M1107 159H1159M1107 159V205.8M1159 159H1211M1159 159V205.8M1211 159H1263M1211 159V205.8M1263 159H1315M1263 159V205.8M1315 159H1367M1315 159V205.8M1367 159H1419M1367 159V205.8M1419 159H1471M1419 159V205.8M1471 159H1523M1471 159V205.8M1523 159H1575M1523 159V205.8M1575 159V205.8M743 205.8H795M743 205.8V252.6M795 205.8H847M795 205.8V252.6M847 205.8H899M847 205.8V252.6M899 205.8H951M899 205.8V252.6M951 205.8H1003M951 205.8V252.6M1003 205.8H1055M1003 205.8V252.6M1055 205.8H1107M1055 205.8V252.6M1107 205.8H1159M1107 205.8V252.6M1159 205.8H1211M1159 205.8V252.6M1211 205.8H1263M1211 205.8V252.6M1263 205.8H1315M1263 205.8V252.6M1315 205.8H1367M1315 205.8V252.6M1367 205.8H1419M1367 205.8V252.6M1419 205.8H1471M1419 205.8V252.6M1471 205.8H1523M1471 205.8V252.6M1523 205.8H1575M1523 205.8V252.6M1575 205.8V252.6M743 252.6H795M743 252.6V299.4M795 252.6H847M795 252.6V299.4M847 252.6H899M847 252.6V299.4M899 252.6H951M899 252.6V299.4M951 252.6H1003M951 252.6V299.4M1003 252.6H1055M1003 252.6V299.4M1055 252.6H1107M1055 252.6V299.4M1107 252.6H1159M1107 252.6V299.4M1159 252.6H1211M1159 252.6V299.4M1211 252.6H1263M1211 252.6V299.4M1263 252.6H1315M1263 252.6V299.4M1315 252.6H1367M1315 252.6V299.4M1367 252.6H1419M1367 252.6V299.4M1419 252.6H1471M1419 252.6V299.4M1471 252.6H1523M1471 252.6V299.4M1523 252.6H1575M1523 252.6V299.4M1575 252.6V299.4M743 299.4H795M743 299.4V346.2M795 299.4H847M795 299.4V346.2M847 299.4H899M847 299.4V346.2M899 299.4H951M899 299.4V346.2M951 299.4H1003M951 299.4V346.2M1003 299.4H1055M1003 299.4V346.2M1055 299.4H1107M1055 299.4V346.2M1107 299.4H1159M1107 299.4V346.2M1159 299.4H1211M1159 299.4V346.2M1211 299.4H1263M1211 299.4V346.2M1263 299.4H1315M1263 299.4V346.2M1315 299.4H1367M1315 299.4V346.2M1367 299.4H1419M1367 299.4V346.2M1419 299.4H1471M1419 299.4V346.2M1471 299.4H1523M1471 299.4V346.2M1523 299.4H1575M1523 299.4V346.2M1575 299.4V346.2M743 346.2H795M743 346.2V393M795 346.2H847M795 346.2V393M847 346.2H899M847 346.2V393M899 346.2H951M899 346.2V393M951 346.2H1003M951 346.2V393M1003 346.2H1055M1003 346.2V393M1055 346.2H1107M1055 346.2V393M1107 346.2H1159M1107 346.2V393M1159 346.2H1211M1159 346.2V393M1211 346.2H1263M1211 346.2V393M1263 346.2H1315M1263 346.2V393M1315 346.2H1367M1315 346.2V393M1367 346.2H1419M1367 346.2V393M1419 346.2H1471M1419 346.2V393M1471 346.2H1523M1471 346.2V393M1523 346.2H1575M1523 346.2V393M1575 346.2V393M743 393H795M743 393V439.8M795 393H847M795 393V439.8M847 393H899M847 393V439.8M899 393H951M899 393V439.8M951 393H1003M951 393V439.8M1003 393H1055M1003 393V439.8M1055 393H1107M1055 393V439.8M1107 393H1159M1107 393V439.8M1159 393H1211M1159 393V439.8M1211 393H1263M1211 393V439.8M1263 393H1315M1263 393V439.8M1315 393H1367M1315 393V439.8M1367 393H1419M1367 393V439.8M1419 393H1471M1419 393V439.8M1471 393H1523M1471 393V439.8M1523 393H1575M1523 393V439.8M1575 393V439.8M743 439.8H795M743 439.8V486.6M795 439.8H847M795 439.8V486.6M847 439.8H899M847 439.8V486.6M899 439.8H951M899 439.8V486.6M951 439.8H1003M951 439.8V486.6M1003 439.8H1055M1003 439.8V486.6M1055 439.8H1107M1055 439.8V486.6M1107 439.8H1159M1107 439.8V486.6M1159 439.8H1211M1159 439.8V486.6M1211 439.8H1263M1211 439.8V486.6M1263 439.8H1315M1263 439.8V486.6M1315 439.8H1367M1315 439.8V486.6M1367 439.8H1419M1367 439.8V486.6M1419 439.8H1471M1419 439.8V486.6M1471 439.8H1523M1471 439.8V486.6M1523 439.8H1575M1523 439.8V486.6M1575 439.8V486.6H1523M743 486.6H795M795 486.6H847M847 486.6H899M899 486.6H951M951 486.6H1003M1003 486.6H1055M1055 486.6H1107M1107 486.6H1159M1159 486.6H1211M1211 486.6H1263M1263 486.6H1315M1315 486.6H1367M1367 486.6H1419M1419 486.6H1471M1471 486.6H1523M743 486.4V533.2M743 486.4H795M743 533.2H795M743 533.2V580M795 486.4V533.2M795 486.4H847M795 533.2H847M795 533.2V580M847 486.4V533.2M847 486.4H899M847 533.2H899M847 533.2V580M899 486.4V533.2M899 486.4H951M899 533.2H951M899 533.2V580M951 486.4V533.2M951 486.4H1003M951 533.2H1003M951 533.2V580M1003 486.4V533.2M1003 486.4H1055M1003 533.2H1055M1003 533.2V580M1055 486.4V533.2M1055 486.4H1107M1055 533.2H1107M1055 533.2V580M1107 486.4V533.2M1107 486.4H1159M1107 533.2H1159M1107 533.2V580M1159 486.4V533.2M1159 486.4H1211M1159 533.2H1211M1159 533.2V580M1211 486.4V533.2M1211 486.4H1263M1211 533.2H1263M1211 533.2V580M1263 486.4V533.2M1263 486.4H1315M1263 533.2H1315M1263 533.2V580M1315 486.4V533.2M1315 486.4H1367M1315 533.2H1367M1315 533.2V580M1367 486.4V533.2M1367 486.4H1419M1367 533.2H1419M1367 533.2V580M1419 486.4V533.2M1419 486.4H1471M1419 533.2H1471M1419 533.2V580M1471 486.4V533.2M1471 486.4H1523M1471 533.2H1523M1471 533.2V580M1523 486.4V533.2M1523 486.4H1575V533.2M1523 533.2H1575M1523 533.2V580M1575 533.2V580M743 580H795M743 580V626.8M795 580H847M795 580V626.8M847 580H899M847 580V626.8M899 580H951M899 580V626.8M951 580H1003M951 580V626.8M1003 580H1055M1003 580V626.8M1055 580H1107M1055 580V626.8M1107 580H1159M1107 580V626.8M1159 580H1211M1159 580V626.8M1211 580H1263M1211 580V626.8M1263 580H1315M1263 580V626.8M1315 580H1367M1315 580V626.8M1367 580H1419M1367 580V626.8M1419 580H1471M1419 580V626.8M1471 580H1523M1471 580V626.8M1523 580H1575M1523 580V626.8M1575 580V626.8M743 626.8H795M743 626.8V673.6M795 626.8H847M795 626.8V673.6M847 626.8H899M847 626.8V673.6M899 626.8H951M899 626.8V673.6M951 626.8H1003M951 626.8V673.6M1003 626.8H1055M1003 626.8V673.6M1055 626.8H1107M1055 626.8V673.6M1107 626.8H1159M1107 626.8V673.6M1159 626.8H1211M1159 626.8V673.6M1211 626.8H1263M1211 626.8V673.6M1263 626.8H1315M1263 626.8V673.6M1315 626.8H1367M1315 626.8V673.6M1367 626.8H1419M1367 626.8V673.6M1419 626.8H1471M1419 626.8V673.6M1471 626.8H1523M1471 626.8V673.6M1523 626.8H1575M1523 626.8V673.6M1575 626.8V673.6M743 673.6H795M743 673.6V720.4M795 673.6H847M795 673.6V720.4M847 673.6H899M847 673.6V720.4M899 673.6H951M899 673.6V720.4M951 673.6H1003M951 673.6V720.4M1003 673.6H1055M1003 673.6V720.4M1055 673.6H1107M1055 673.6V720.4M1107 673.6H1159M1107 673.6V720.4M1159 673.6H1211M1159 673.6V720.4M1211 673.6H1263M1211 673.6V720.4M1263 673.6H1315M1263 673.6V720.4M1315 673.6H1367M1315 673.6V720.4M1367 673.6H1419M1367 673.6V720.4M1419 673.6H1471M1419 673.6V720.4M1471 673.6H1523M1471 673.6V720.4M1523 673.6H1575M1523 673.6V720.4M1575 673.6V720.4M743 720.4H795M743 720.4V767.2M795 720.4H847M795 720.4V767.2M847 720.4H899M847 720.4V767.2M899 720.4H951M899 720.4V767.2M951 720.4H1003M951 720.4V767.2M1003 720.4H1055M1003 720.4V767.2M1055 720.4H1107M1055 720.4V767.2M1107 720.4H1159M1107 720.4V767.2M1159 720.4H1211M1159 720.4V767.2M1211 720.4H1263M1211 720.4V767.2M1263 720.4H1315M1263 720.4V767.2M1315 720.4H1367M1315 720.4V767.2M1367 720.4H1419M1367 720.4V767.2M1419 720.4H1471M1419 720.4V767.2M1471 720.4H1523M1471 720.4V767.2M1523 720.4H1575M1523 720.4V767.2M1575 720.4V767.2M743 767.2H795M743 767.2V814M795 767.2H847M795 767.2V814M847 767.2H899M847 767.2V814M899 767.2H951M899 767.2V814M951 767.2H1003M951 767.2V814M1003 767.2H1055M1003 767.2V814M1055 767.2H1107M1055 767.2V814M1107 767.2H1159M1107 767.2V814M1159 767.2H1211M1159 767.2V814M1211 767.2H1263M1211 767.2V814M1263 767.2H1315M1263 767.2V814M1315 767.2H1367M1315 767.2V814M1367 767.2H1419M1367 767.2V814M1419 767.2H1471M1419 767.2V814M1471 767.2H1523M1471 767.2V814M1523 767.2H1575M1523 767.2V814M1575 767.2V814M743 814H795M743 814V860.8M795 814H847M795 814V860.8M847 814H899M847 814V860.8M899 814H951M899 814V860.8M951 814H1003M951 814V860.8M1003 814H1055M1003 814V860.8M1055 814H1107M1055 814V860.8M1107 814H1159M1107 814V860.8M1159 814H1211M1159 814V860.8M1211 814H1263M1211 814V860.8M1263 814H1315M1263 814V860.8M1315 814H1367M1315 814V860.8M1367 814H1419M1367 814V860.8M1419 814H1471M1419 814V860.8M1471 814H1523M1471 814V860.8M1523 814H1575M1523 814V860.8M1575 814V860.8M743 860.8H795M743 860.8V907.6M795 860.8H847M795 860.8V907.6M847 860.8H899M847 860.8V907.6M899 860.8H951M899 860.8V907.6M951 860.8H1003M951 860.8V907.6M1003 860.8H1055M1003 860.8V907.6M1055 860.8H1107M1055 860.8V907.6M1107 860.8H1159M1107 860.8V907.6M1159 860.8H1211M1159 860.8V907.6M1211 860.8H1263M1211 860.8V907.6M1263 860.8H1315M1263 860.8V907.6M1315 860.8H1367M1315 860.8V907.6M1367 860.8H1419M1367 860.8V907.6M1419 860.8H1471M1419 860.8V907.6M1471 860.8H1523M1471 860.8V907.6M1523 860.8H1575M1523 860.8V907.6M1575 860.8V907.6M743 907.6H795M743 907.6V954.4M795 907.6H847M795 907.6V954.4M847 907.6H899M847 907.6V954.4M899 907.6H951M899 907.6V954.4M951 907.6H1003M951 907.6V954.4M1003 907.6H1055M1003 907.6V954.4M1055 907.6H1107M1055 907.6V954.4M1107 907.6H1159M1107 907.6V954.4M1159 907.6H1211M1159 907.6V954.4M1211 907.6H1263M1211 907.6V954.4M1263 907.6H1315M1263 907.6V954.4M1315 907.6H1367M1315 907.6V954.4M1367 907.6H1419M1367 907.6V954.4M1419 907.6H1471M1419 907.6V954.4M1471 907.6H1523M1471 907.6V954.4M1523 907.6H1575M1523 907.6V954.4M1575 907.6V954.4M743 954.4H795M743 954.4V1001.2M795 954.4H847M795 954.4V1001.2M847 954.4H899M847 954.4V1001.2M899 954.4H951M899 954.4V1001.2M951 954.4H1003M951 954.4V1001.2M1003 954.4H1055M1003 954.4V1001.2M1055 954.4H1107M1055 954.4V1001.2M1107 954.4H1159M1107 954.4V1001.2M1159 954.4H1211M1159 954.4V1001.2M1211 954.4H1263M1211 954.4V1001.2M1263 954.4H1315M1263 954.4V1001.2M1315 954.4H1367M1315 954.4V1001.2M1367 954.4H1419M1367 954.4V1001.2M1419 954.4H1471M1419 954.4V1001.2M1471 954.4H1523M1471 954.4V1001.2M1523 954.4H1575M1523 954.4V1001.2M1575 954.4V1001.2M743 1001.2H795M743 1001.2V1048M795 1001.2H847M795 1001.2V1048M847 1001.2H899M847 1001.2V1048M899 1001.2H951M899 1001.2V1048M951 1001.2H1003M951 1001.2V1048M1003 1001.2H1055M1003 1001.2V1048M1055 1001.2H1107M1055 1001.2V1048M1107 1001.2H1159M1107 1001.2V1048M1159 1001.2H1211M1159 1001.2V1048M1211 1001.2H1263M1211 1001.2V1048M1263 1001.2H1315M1263 1001.2V1048M1315 1001.2H1367M1315 1001.2V1048M1367 1001.2H1419M1367 1001.2V1048M1419 1001.2H1471M1419 1001.2V1048M1471 1001.2H1523M1471 1001.2V1048M1523 1001.2H1575M1523 1001.2V1048M1575 1001.2V1048H1523M743 1048H795M795 1048H847M847 1048H899M899 1048H951M951 1048H1003M1003 1048H1055M1055 1048H1107M1107 1048H1159M1159 1048H1211M1211 1048H1263M1263 1048H1315M1315 1048H1367M1367 1048H1419M1419 1048H1471M1471 1048H1523" stroke="url(#paint0_radial_25_2086)"/>
<g opacity="0.2" filter="url(#filter0_f_25_2086)">
<path d="M622.091 619.318C476.226 659.941 401.056 602.392 381.704 568.54C301.877 474.238 329.998 287.447 381.704 364.521C423.069 426.18 532.588 414.392 582.178 400.791C735.179 363.01 1045.54 302.862 1062.95 364.521C1084.72 441.595 804.422 568.54 622.091 619.318Z" fill="#B7DFFC"/>
<mask id="mask0_25_2086" style="mask-type:alpha" maskUnits="userSpaceOnUse" x="331" y="337" width="734" height="297">
<path d="M622.091 619.318C476.226 659.941 401.056 602.392 381.704 568.54C301.877 474.238 329.998 287.447 381.704 364.521C423.069 426.18 532.588 414.392 582.178 400.791C735.179 363.01 1045.54 302.862 1062.95 364.521C1084.72 441.595 804.422 568.54 622.091 619.318Z" fill="#F7C74C"/>
</mask>
<g mask="url(#mask0_25_2086)">
<ellipse cx="802.605" cy="319.439" rx="293.603" ry="133.302" transform="rotate(-175.646 802.605 319.439)" fill="#8BA4E1"/>
<ellipse cx="440.365" cy="602.267" rx="293.603" ry="133.302" transform="rotate(-157.142 440.365 602.267)" fill="#1F366B"/>
</g>
</g>
<g opacity="0.5">
<path d="M293.727 633.839C293.878 633.471 293.403 633.205 292.981 633.42C292.89 633.468 292.824 633.535 292.79 633.614C292.631 633.983 293.114 634.248 293.536 634.033C293.627 633.985 293.693 633.918 293.727 633.839Z" fill="white" fill-opacity="0.1"/>
<path d="M570.779 581.543C570.931 581.176 570.456 580.909 570.034 581.125C569.943 581.172 569.877 581.239 569.843 581.319C569.684 581.687 570.167 581.953 570.588 581.737C570.68 581.69 570.745 581.623 570.779 581.543Z" fill="white" fill-opacity="0.1"/>
<path d="M939.804 320.814C939.956 320.446 939.48 320.18 939.057 320.395C938.965 320.443 938.899 320.51 938.865 320.59C938.713 320.957 939.19 321.224 939.612 321.008C939.704 320.96 939.77 320.893 939.804 320.814Z" fill="white" fill-opacity="0.8"/>
<path d="M647.863 647.865C648.015 647.498 647.539 647.231 647.116 647.447C647.024 647.494 646.958 647.561 646.924 647.641C646.772 648.008 647.249 648.275 647.672 648.059C647.763 648.012 647.829 647.945 647.863 647.865Z" fill="white" fill-opacity="0.8"/>
<path d="M738.696 654.7C738.854 654.332 738.372 654.066 737.95 654.282C737.859 654.329 737.793 654.396 737.759 654.476C737.608 654.843 738.083 655.11 738.505 654.894C738.596 654.847 738.662 654.78 738.696 654.7Z" fill="white" fill-opacity="0.1"/>
<path d="M909.651 551.735C909.81 551.367 909.327 551.101 908.905 551.316C908.814 551.364 908.748 551.431 908.714 551.511C908.563 551.878 909.038 552.145 909.46 551.929C909.551 551.882 909.617 551.815 909.651 551.735Z" fill="white" fill-opacity="0.1"/>
<path d="M934.253 423.121C934.412 422.753 933.929 422.487 933.507 422.703C933.416 422.75 933.35 422.817 933.316 422.897C933.165 423.264 933.64 423.531 934.062 423.315C934.153 423.268 934.219 423.201 934.253 423.121Z" fill="white" fill-opacity="0.1"/>
<path d="M878.209 336.662C878.36 336.295 877.885 336.028 877.463 336.243C877.372 336.291 877.306 336.358 877.272 336.438C877.113 336.806 877.596 337.071 878.018 336.856C878.109 336.809 878.175 336.742 878.209 336.662Z" fill="white" fill-opacity="0.1"/>
<path d="M955.862 348.559C956.014 348.192 955.538 347.925 955.115 348.141C955.024 348.189 954.957 348.256 954.923 348.335C954.771 348.703 955.248 348.969 955.671 348.754C955.762 348.706 955.828 348.639 955.862 348.559Z" fill="white" fill-opacity="0.1"/>
<path d="M877.244 378.194C877.403 377.826 876.92 377.56 876.499 377.775C876.407 377.823 876.341 377.89 876.308 377.97C876.156 378.337 876.631 378.604 877.053 378.388C877.144 378.341 877.21 378.274 877.244 378.194Z" fill="white" fill-opacity="0.1"/>
<path d="M890.684 458.661C890.843 458.293 890.36 458.027 889.939 458.243C889.847 458.29 889.781 458.357 889.747 458.437C889.596 458.804 890.071 459.071 890.493 458.855C890.584 458.808 890.65 458.741 890.684 458.661Z" fill="white" fill-opacity="0.1"/>
<path d="M1048.94 449.289C1049.09 448.922 1048.62 448.655 1048.19 448.87C1048.1 448.918 1048.04 448.985 1048 449.064C1047.84 449.433 1048.33 449.698 1048.75 449.483C1048.84 449.435 1048.91 449.368 1048.94 449.289Z" fill="white" fill-opacity="0.1"/>
<path d="M526.887 500.008C527.039 499.641 526.564 499.374 526.142 499.59C526.051 499.637 525.985 499.704 525.951 499.784C525.792 500.152 526.274 500.418 526.696 500.202C526.787 500.155 526.853 500.088 526.887 500.008Z" fill="white" fill-opacity="0.1"/>
<path d="M485.676 650.867C485.828 650.5 485.352 650.233 484.929 650.449C484.837 650.496 484.771 650.563 484.737 650.643C484.585 651.01 485.062 651.277 485.485 651.061C485.576 651.014 485.642 650.947 485.676 650.867Z" fill="white" fill-opacity="0.1"/>
<path d="M654.884 566.559C655.043 566.191 654.56 565.925 654.139 566.141C654.047 566.188 653.982 566.255 653.948 566.335C653.796 566.702 654.271 566.969 654.693 566.753C654.784 566.706 654.85 566.639 654.884 566.559Z" fill="white" fill-opacity="0.1"/>
<path d="M550.609 652.923C550.761 652.556 550.286 652.289 549.864 652.505C549.773 652.552 549.707 652.619 549.673 652.699C549.514 653.067 549.997 653.333 550.418 653.117C550.51 653.07 550.576 653.003 550.609 652.923Z" fill="white" fill-opacity="0.8"/>
<path d="M241.964 598.955C242.116 598.588 241.64 598.321 241.217 598.537C241.125 598.584 241.059 598.651 241.025 598.731C240.873 599.098 241.349 599.365 241.772 599.149C241.864 599.102 241.93 599.035 241.964 598.955Z" fill="white" fill-opacity="0.8"/>
<path d="M294.723 486.766C294.875 486.399 294.399 486.132 293.976 486.348C293.884 486.395 293.818 486.462 293.784 486.542C293.632 486.909 294.109 487.176 294.531 486.96C294.623 486.913 294.689 486.846 294.723 486.766Z" fill="white" fill-opacity="0.1"/>
<path d="M524.446 544.799C524.598 544.432 524.122 544.165 523.699 544.381C523.608 544.428 523.541 544.495 523.507 544.575C523.355 544.942 523.832 545.209 524.255 544.993C524.346 544.946 524.412 544.879 524.446 544.799Z" fill="white" fill-opacity="0.1"/>
<path d="M486.876 519.257C487.028 518.89 486.552 518.623 486.129 518.839C486.037 518.886 485.971 518.953 485.937 519.033C485.785 519.4 486.261 519.667 486.684 519.451C486.776 519.404 486.842 519.337 486.876 519.257Z" fill="white" fill-opacity="0.8"/>
<path d="M346.975 482.597C347.441 482.686 347.824 482.299 347.576 481.989C347.521 481.922 347.439 481.876 347.338 481.856C346.871 481.762 346.489 482.155 346.737 482.464C346.792 482.531 346.874 482.577 346.975 482.597Z" fill="white" fill-opacity="0.8"/>
<path d="M404.731 590.128C404.882 589.761 404.407 589.494 403.986 589.71C403.894 589.757 403.828 589.824 403.795 589.904C403.636 590.272 404.118 590.538 404.54 590.322C404.631 590.275 404.697 590.208 404.731 590.128Z" fill="white" fill-opacity="0.1"/>
<path d="M414.203 652.542C414.354 652.175 413.879 651.908 413.457 652.124C413.366 652.171 413.3 652.238 413.266 652.318C413.107 652.686 413.59 652.952 414.012 652.736C414.103 652.689 414.169 652.622 414.203 652.542Z" fill="white" fill-opacity="0.1"/>
<path d="M560.07 691.118C560.222 690.752 559.747 690.486 559.325 690.701C559.234 690.748 559.168 690.815 559.134 690.895C558.975 691.262 559.458 691.532 559.879 691.312C559.97 691.264 560.036 691.197 560.07 691.118Z" fill="white" fill-opacity="0.1"/>
<path d="M489.425 677.28C489.577 676.913 489.1 676.646 488.678 676.862C488.586 676.909 488.52 676.976 488.486 677.056C488.334 677.423 488.81 677.69 489.233 677.474C489.325 677.427 489.391 677.36 489.425 677.28Z" fill="white" fill-opacity="0.8"/>
<path d="M773.988 529.855C774.14 529.488 773.665 529.221 773.243 529.436C773.152 529.484 773.086 529.551 773.052 529.63C772.893 529.999 773.376 530.264 773.797 530.049C773.889 530.001 773.954 529.934 773.988 529.855Z" fill="white" fill-opacity="0.8"/>
<path d="M499.258 416.003C499.409 415.636 498.934 415.369 498.512 415.585C498.421 415.632 498.355 415.699 498.321 415.779C498.163 416.147 498.645 416.413 499.067 416.197C499.158 416.15 499.224 416.083 499.258 416.003Z" fill="white" fill-opacity="0.1"/>
<path d="M830.132 414.153C830.284 413.786 829.809 413.519 829.387 413.735C829.296 413.782 829.23 413.849 829.196 413.929C829.037 414.297 829.52 414.563 829.941 414.347C830.033 414.3 830.098 414.233 830.132 414.153Z" fill="white" fill-opacity="0.1"/>
<path d="M835.864 349.758C836.015 349.391 835.54 349.125 835.118 349.34C835.027 349.388 834.961 349.455 834.927 349.534C834.768 349.901 835.252 350.172 835.673 349.951C835.764 349.904 835.83 349.837 835.864 349.758Z" fill="white" fill-opacity="0.1"/>
<path d="M787.121 496.831C787.273 496.464 786.797 496.197 786.376 496.412C786.284 496.46 786.219 496.527 786.185 496.606C786.026 496.975 786.508 497.24 786.93 497.025C787.021 496.977 787.087 496.91 787.121 496.831Z" fill="white" fill-opacity="0.1"/>
<path d="M211.065 395.476C211.217 395.11 210.742 394.844 210.32 395.059C210.229 395.106 210.163 395.173 210.129 395.252C209.97 395.62 210.453 395.89 210.874 395.67C210.965 395.622 211.031 395.555 211.065 395.476Z" fill="white" fill-opacity="0.1"/>
<path d="M964.06 372.279C963.593 372.185 963.21 372.578 963.458 372.887C963.513 372.954 963.595 373 963.696 373.02C964.162 373.109 964.546 372.722 964.298 372.412C964.243 372.345 964.161 372.299 964.06 372.279Z" fill="white" fill-opacity="0.1"/>
<path d="M459.026 399.055C459.185 398.687 458.702 398.421 458.28 398.637C458.189 398.684 458.123 398.751 458.089 398.831C457.938 399.198 458.413 399.465 458.835 399.249C458.926 399.202 458.992 399.135 459.026 399.055Z" fill="white" fill-opacity="0.1"/>
<path d="M643.85 543.806C644.002 543.439 643.526 543.172 643.103 543.388C643.011 543.435 642.945 543.502 642.911 543.582C642.759 543.949 643.235 544.216 643.658 544C643.75 543.953 643.816 543.886 643.85 543.806Z" fill="white" fill-opacity="0.1"/>
<path d="M369.339 421.277C369.491 420.911 369.016 420.645 368.594 420.86C368.503 420.907 368.437 420.974 368.403 421.054C368.244 421.421 368.727 421.691 369.148 421.471C369.239 421.423 369.305 421.357 369.339 421.277Z" fill="white" fill-opacity="0.1"/>
<path d="M825.054 572.677C825.212 572.309 824.73 572.043 824.308 572.258C824.217 572.306 824.151 572.373 824.117 572.453C823.966 572.82 824.441 573.086 824.863 572.871C824.954 572.824 825.02 572.757 825.054 572.677Z" fill="white" fill-opacity="0.8"/>
<path d="M261.843 417.642C262.001 417.274 261.519 417.008 261.097 417.224C261.006 417.271 260.94 417.338 260.906 417.418C260.755 417.785 261.23 418.052 261.652 417.836C261.743 417.789 261.809 417.722 261.843 417.642Z" fill="white" fill-opacity="0.8"/>
<path d="M121.266 445.946C121.418 445.578 120.942 445.312 120.519 445.527C120.427 445.575 120.361 445.642 120.327 445.722C120.175 446.089 120.651 446.355 121.074 446.14C121.166 446.092 121.232 446.025 121.266 445.946Z" fill="white" fill-opacity="0.1"/>
<path d="M271.145 453.285C271.297 452.918 270.821 452.651 270.398 452.867C270.306 452.914 270.24 452.981 270.206 453.061C270.054 453.428 270.53 453.695 270.953 453.479C271.045 453.432 271.111 453.365 271.145 453.285Z" fill="white" fill-opacity="0.1"/>
<path d="M563.768 363.898C563.92 363.53 563.444 363.264 563.021 363.479C562.93 363.527 562.864 363.594 562.83 363.674C562.678 364.041 563.154 364.308 563.577 364.092C563.668 364.044 563.734 363.977 563.768 363.898Z" fill="white" fill-opacity="0.1"/>
<path d="M630.533 658.183C630.691 657.815 630.209 657.549 629.787 657.765C629.696 657.812 629.63 657.879 629.596 657.959C629.445 658.326 629.92 658.593 630.342 658.377C630.433 658.33 630.499 658.263 630.533 658.183Z" fill="white" fill-opacity="0.1"/>
<path d="M955.673 631.895C955.825 631.528 955.349 631.261 954.926 631.477C954.835 631.524 954.768 631.591 954.734 631.671C954.582 632.038 955.059 632.305 955.482 632.089C955.573 632.041 955.639 631.974 955.673 631.895Z" fill="white" fill-opacity="0.1"/>
<path d="M605.486 415.568C605.637 415.2 605.162 414.934 604.74 415.149C604.649 415.197 604.583 415.264 604.549 415.343C604.391 415.712 604.873 415.977 605.295 415.762C605.386 415.714 605.452 415.647 605.486 415.568Z" fill="white" fill-opacity="0.1"/>
<path d="M642.279 387.389C642.438 387.021 641.955 386.755 641.534 386.97C641.442 387.018 641.377 387.085 641.343 387.164C641.191 387.532 641.666 387.798 642.088 387.583C642.179 387.535 642.245 387.468 642.279 387.389Z" fill="white" fill-opacity="0.1"/>
<path d="M320.204 552.437C320.355 552.07 319.88 551.803 319.458 552.019C319.367 552.066 319.301 552.133 319.267 552.213C319.108 552.581 319.591 552.847 320.013 552.631C320.104 552.584 320.17 552.517 320.204 552.437Z" fill="white" fill-opacity="0.1"/>
<path d="M550.72 407.241C550.872 406.874 550.396 406.608 549.973 406.823C549.881 406.871 549.815 406.938 549.781 407.017C549.629 407.385 550.106 407.651 550.529 407.436C550.62 407.388 550.686 407.321 550.72 407.241Z" fill="white" fill-opacity="0.1"/>
<path d="M726.01 587.866C726.169 587.498 725.686 587.232 725.265 587.447C725.173 587.495 725.108 587.562 725.074 587.642C724.922 588.009 725.397 588.275 725.819 588.06C725.91 588.012 725.976 587.946 726.01 587.866Z" fill="white" fill-opacity="0.1"/>
<path d="M933.344 517.275C933.502 516.907 933.02 516.642 932.598 516.857C932.507 516.904 932.441 516.971 932.407 517.051C932.256 517.418 932.731 517.685 933.153 517.47C933.244 517.422 933.31 517.355 933.344 517.275Z" fill="white" fill-opacity="0.8"/>
<path d="M939.138 472.195C939.29 471.827 938.814 471.561 938.391 471.776C938.299 471.824 938.233 471.891 938.199 471.971C938.047 472.338 938.524 472.604 938.946 472.389C939.038 472.341 939.104 472.274 939.138 472.195Z" fill="white" fill-opacity="0.1"/>
<path d="M489.577 478.358C489.328 478.048 489.712 477.659 490.178 477.749C490.279 477.769 490.361 477.815 490.416 477.882C490.664 478.192 490.281 478.581 489.815 478.492C489.714 478.471 489.631 478.425 489.577 478.358Z" fill="white" fill-opacity="0.1"/>
<path d="M519.816 662.958C519.568 662.648 519.951 662.259 520.417 662.349C520.518 662.369 520.6 662.415 520.655 662.482C520.903 662.793 520.52 663.181 520.054 663.092C519.953 663.072 519.871 663.026 519.816 662.958Z" fill="white" fill-opacity="0.1"/>
<path d="M451.616 630.771C451.368 630.461 451.751 630.073 452.216 630.162C452.316 630.182 452.398 630.228 452.453 630.295C452.708 630.605 452.319 630.994 451.854 630.905C451.753 630.885 451.671 630.839 451.616 630.771Z" fill="white" fill-opacity="0.1"/>
<path d="M426.963 677.676C426.715 677.366 427.098 676.977 427.564 677.067C427.665 677.087 427.747 677.133 427.802 677.2C428.05 677.51 427.667 677.899 427.201 677.81C427.1 677.789 427.018 677.743 426.963 677.676Z" fill="white" fill-opacity="0.1"/>
<path d="M556.182 670.114C555.934 669.804 556.316 669.417 556.781 669.506C556.882 669.526 556.964 669.572 557.019 669.639C557.274 669.947 556.885 670.341 556.419 670.247C556.318 670.227 556.236 670.181 556.182 670.114Z" fill="white" fill-opacity="0.1"/>
<path d="M400.739 571.851C400.491 571.54 400.873 571.152 401.338 571.241C401.439 571.261 401.521 571.307 401.576 571.375C401.831 571.684 401.441 572.073 400.976 571.984C400.875 571.964 400.793 571.918 400.739 571.851Z" fill="white" fill-opacity="0.1"/>
<path d="M327.182 457.001C327.604 456.781 328.081 457.052 327.929 457.418C327.894 457.498 327.828 457.565 327.737 457.612C327.314 457.827 326.838 457.562 326.99 457.195C327.024 457.116 327.09 457.049 327.182 457.001Z" fill="white" fill-opacity="0.1"/>
<path d="M255.014 583.432C254.766 583.122 255.148 582.733 255.613 582.823C255.714 582.843 255.796 582.889 255.851 582.956C256.106 583.266 255.717 583.655 255.252 583.565C255.151 583.545 255.069 583.499 255.014 583.432Z" fill="white" fill-opacity="0.1"/>
<path d="M720.117 371.367C719.862 371.058 720.252 370.668 720.717 370.758C720.818 370.778 720.9 370.824 720.954 370.891C721.202 371.202 720.82 371.59 720.355 371.501C720.254 371.48 720.172 371.434 720.117 371.367Z" fill="white" fill-opacity="0.8"/>
<path d="M863.032 558.4C862.777 558.091 863.166 557.697 863.632 557.792C863.733 557.812 863.815 557.858 863.87 557.924C864.117 558.234 863.735 558.622 863.27 558.532C863.169 558.512 863.087 558.466 863.032 558.4Z" fill="white" fill-opacity="0.1"/>
<path d="M904.212 586.824C903.957 586.514 904.346 586.125 904.811 586.214C904.912 586.235 904.994 586.281 905.049 586.348C905.297 586.658 904.914 587.047 904.449 586.957C904.349 586.937 904.267 586.891 904.212 586.824Z" fill="white" fill-opacity="0.8"/>
<path d="M970.579 408.83C970.331 408.519 970.713 408.131 971.178 408.22C971.279 408.24 971.361 408.286 971.416 408.354C971.671 408.663 971.281 409.052 970.816 408.963C970.716 408.943 970.634 408.897 970.579 408.83Z" fill="white" fill-opacity="0.1"/>
<path d="M944.213 390.762C943.958 390.453 944.348 390.063 944.813 390.153C944.914 390.173 944.996 390.219 945.05 390.286C945.298 390.597 944.916 390.985 944.451 390.896C944.35 390.875 944.268 390.829 944.213 390.762Z" fill="white" fill-opacity="0.8"/>
<path d="M889.964 502.646C889.709 502.336 890.099 501.947 890.564 502.036C890.665 502.056 890.747 502.102 890.801 502.17C891.049 502.48 890.667 502.869 890.202 502.779C890.101 502.759 890.019 502.713 889.964 502.646Z" fill="white" fill-opacity="0.1"/>
<path d="M561.053 369.948C560.805 369.638 561.187 369.249 561.652 369.339C561.753 369.359 561.835 369.405 561.89 369.472C562.145 369.782 561.755 370.171 561.29 370.082C561.189 370.061 561.107 370.015 561.053 369.948Z" fill="white" fill-opacity="0.1"/>
<path d="M538.772 381.177C538.524 380.866 538.908 380.478 539.374 380.567C539.475 380.587 539.557 380.633 539.612 380.7C539.86 381.011 539.477 381.399 539.011 381.31C538.909 381.29 538.827 381.244 538.772 381.177Z" fill="white" fill-opacity="0.1"/>
<path d="M335.795 633.368C335.547 633.058 335.93 632.669 336.397 632.758C336.498 632.779 336.58 632.825 336.635 632.892C336.883 633.202 336.5 633.591 336.033 633.501C335.932 633.481 335.85 633.435 335.795 633.368Z" fill="white" fill-opacity="0.1"/>
<path d="M201.871 557.684C201.616 557.376 202.005 556.981 202.471 557.076C202.572 557.096 202.654 557.142 202.708 557.209C202.956 557.519 202.574 557.906 202.109 557.817C202.008 557.797 201.926 557.751 201.871 557.684Z" fill="white" fill-opacity="0.1"/>
<path d="M234.312 537.237C234.057 536.928 234.446 536.538 234.911 536.628C235.012 536.648 235.094 536.694 235.149 536.761C235.396 537.072 235.014 537.46 234.549 537.371C234.448 537.351 234.366 537.305 234.312 537.237Z" fill="white" fill-opacity="0.8"/>
<path d="M410.176 529.776C409.928 529.465 410.31 529.077 410.775 529.166C410.876 529.187 410.958 529.233 411.013 529.3C411.268 529.609 410.878 529.999 410.413 529.909C410.312 529.889 410.23 529.843 410.176 529.776Z" fill="white" fill-opacity="0.1"/>
<path d="M149.039 484.346C148.792 484.036 149.174 483.647 149.639 483.737C149.74 483.757 149.822 483.803 149.876 483.87C150.131 484.18 149.742 484.569 149.277 484.48C149.176 484.459 149.094 484.413 149.039 484.346Z" fill="white" fill-opacity="0.1"/>
<path d="M995.018 439.201C994.77 438.891 995.152 438.502 995.617 438.592C995.718 438.612 995.8 438.658 995.855 438.725C996.11 439.035 995.72 439.424 995.255 439.335C995.155 439.314 995.073 439.268 995.018 439.201Z" fill="white" fill-opacity="0.1"/>
<path d="M1035.97 406.824C1035.54 407.04 1035.07 406.773 1035.22 406.406C1035.25 406.326 1035.32 406.259 1035.41 406.212C1035.83 405.996 1036.31 406.263 1036.16 406.63C1036.12 406.71 1036.06 406.777 1035.97 406.824Z" fill="white" fill-opacity="0.8"/>
<path d="M1008.42 385.918C1007.99 386.139 1007.52 385.867 1007.67 385.501C1007.7 385.422 1007.77 385.355 1007.86 385.307C1008.28 385.092 1008.76 385.358 1008.61 385.724C1008.57 385.804 1008.51 385.87 1008.42 385.918Z" fill="white" fill-opacity="0.1"/>
<path d="M611.371 376.996C611.123 376.685 611.506 376.297 611.972 376.386C612.074 376.406 612.156 376.452 612.21 376.519C612.459 376.83 612.075 377.218 611.609 377.129C611.508 377.109 611.426 377.063 611.371 376.996Z" fill="white" fill-opacity="0.1"/>
<path d="M344.296 527.392C344.048 527.081 344.43 526.693 344.895 526.782C344.996 526.802 345.078 526.848 345.133 526.916C345.388 527.225 344.998 527.615 344.533 527.525C344.432 527.505 344.35 527.459 344.296 527.392Z" fill="white" fill-opacity="0.1"/>
<path d="M616.43 340.256C616.182 339.946 616.565 339.557 617.031 339.647C617.133 339.667 617.215 339.713 617.27 339.78C617.518 340.09 617.134 340.479 616.668 340.39C616.567 340.369 616.485 340.323 616.43 340.256Z" fill="white" fill-opacity="0.1"/>
<path d="M570.513 391.423C570.265 391.113 570.647 390.724 571.112 390.814C571.213 390.834 571.295 390.88 571.35 390.947C571.605 391.257 571.215 391.646 570.75 391.557C570.649 391.536 570.567 391.49 570.513 391.423Z" fill="white" fill-opacity="0.1"/>
<path d="M356.277 452.348C356.029 452.037 356.412 451.649 356.878 451.738C356.979 451.758 357.061 451.804 357.116 451.871C357.364 452.182 356.981 452.57 356.515 452.481C356.414 452.461 356.332 452.415 356.277 452.348Z" fill="white" fill-opacity="0.1"/>
<path d="M532.742 622.199C532.493 621.888 532.877 621.5 533.343 621.589C533.444 621.609 533.526 621.655 533.581 621.722C533.829 622.033 533.446 622.421 532.98 622.332C532.879 622.312 532.797 622.266 532.742 622.199Z" fill="white" fill-opacity="0.1"/>
<path d="M899.862 604.389C899.607 604.079 899.997 603.69 900.462 603.779C900.563 603.8 900.645 603.846 900.699 603.913C900.947 604.223 900.565 604.612 900.1 604.522C899.999 604.502 899.917 604.456 899.862 604.389Z" fill="white" fill-opacity="0.8"/>
<path d="M396.458 690.474C396.21 690.164 396.594 689.775 397.06 689.864C397.161 689.885 397.243 689.931 397.298 689.998C397.546 690.308 397.163 690.697 396.697 690.607C396.595 690.587 396.513 690.541 396.458 690.474Z" fill="white" fill-opacity="0.1"/>
<path d="M466.89 702.804C466.641 702.494 467.025 702.105 467.491 702.195C467.592 702.215 467.674 702.261 467.729 702.328C467.977 702.638 467.594 703.027 467.128 702.937C467.027 702.917 466.944 702.871 466.89 702.804Z" fill="white" fill-opacity="0.8"/>
<path d="M579.956 634.223C579.708 633.912 580.091 633.524 580.557 633.613C580.658 633.633 580.741 633.679 580.795 633.746C581.044 634.057 580.66 634.445 580.194 634.356C580.093 634.336 580.011 634.29 579.956 634.223Z" fill="white" fill-opacity="0.8"/>
<path d="M653.169 627.589C652.921 627.279 653.304 626.89 653.77 626.98C653.871 627 653.953 627.046 654.008 627.113C654.256 627.423 653.873 627.812 653.407 627.723C653.306 627.702 653.224 627.656 653.169 627.589Z" fill="white" fill-opacity="0.8"/>
<path d="M389.851 722.206C389.604 721.895 389.986 721.507 390.451 721.597C390.552 721.617 390.634 721.663 390.688 721.73C390.943 722.04 390.554 722.429 390.089 722.339C389.988 722.319 389.906 722.273 389.851 722.206Z" fill="white" fill-opacity="0.1"/>
<path d="M389.6 428.649C389.352 428.338 389.734 427.95 390.199 428.04C390.3 428.06 390.382 428.106 390.437 428.173C390.692 428.482 390.302 428.872 389.837 428.782C389.737 428.762 389.655 428.716 389.6 428.649Z" fill="white" fill-opacity="0.1"/>
<path d="M693.251 622.934C693.004 622.624 693.386 622.235 693.851 622.325C693.952 622.345 694.034 622.391 694.088 622.458C694.343 622.768 693.954 623.157 693.489 623.067C693.388 623.047 693.306 623.001 693.251 622.934Z" fill="white" fill-opacity="0.1"/>
<path d="M657.783 618.155C657.528 617.846 657.917 617.456 658.382 617.546C658.483 617.566 658.565 617.612 658.62 617.679C658.867 617.99 658.485 618.378 658.02 618.289C657.919 618.268 657.837 618.222 657.783 618.155Z" fill="white" fill-opacity="0.1"/>
<path d="M811.85 457.532C811.595 457.224 811.984 456.83 812.45 456.924C812.551 456.945 812.633 456.99 812.687 457.057C812.935 457.367 812.553 457.754 812.088 457.665C811.987 457.645 811.905 457.599 811.85 457.532Z" fill="white" fill-opacity="0.1"/>
<path d="M733.187 389.791C732.939 389.481 733.323 389.092 733.789 389.182C733.89 389.202 733.972 389.248 734.027 389.315C734.275 389.626 733.892 390.014 733.426 389.925C733.324 389.905 733.242 389.859 733.187 389.791Z" fill="white" fill-opacity="0.8"/>
<path d="M682.516 407.37C682.268 407.06 682.65 406.671 683.115 406.761C683.216 406.781 683.298 406.827 683.353 406.894C683.608 407.204 683.219 407.593 682.753 407.503C682.653 407.483 682.571 407.437 682.516 407.37Z" fill="white" fill-opacity="0.1"/>
<path d="M783.813 609.836C783.565 609.526 783.949 609.137 784.415 609.227C784.516 609.247 784.598 609.293 784.653 609.36C784.901 609.67 784.518 610.059 784.052 609.97C783.95 609.949 783.868 609.903 783.813 609.836Z" fill="white" fill-opacity="0.1"/>
<path d="M742.696 415.657C742.441 415.347 742.831 414.958 743.296 415.047C743.397 415.068 743.479 415.114 743.533 415.181C743.781 415.491 743.399 415.88 742.934 415.79C742.833 415.77 742.751 415.724 742.696 415.657Z" fill="white" fill-opacity="0.1"/>
<path d="M794.554 378.38C794.306 378.07 794.689 377.683 795.154 377.772C795.254 377.792 795.336 377.838 795.391 377.905C795.646 378.213 795.257 378.608 794.791 378.513C794.69 378.493 794.609 378.447 794.554 378.38Z" fill="white" fill-opacity="0.1"/>
<path d="M860.915 514.67C860.667 514.36 861.049 513.971 861.514 514.061C861.615 514.081 861.697 514.127 861.752 514.194C862.007 514.504 861.617 514.893 861.152 514.804C861.052 514.783 860.97 514.738 860.915 514.67Z" fill="white" fill-opacity="0.1"/>
<path d="M830.264 482.266C830.016 481.955 830.399 481.567 830.865 481.656C830.967 481.676 831.049 481.722 831.104 481.789C831.352 482.1 830.968 482.488 830.502 482.399C830.401 482.379 830.319 482.333 830.264 482.266Z" fill="white" fill-opacity="0.1"/>
<path d="M954.646 552.745C954.391 552.436 954.781 552.046 955.246 552.136C955.346 552.156 955.428 552.202 955.483 552.269C955.731 552.58 955.349 552.968 954.884 552.879C954.783 552.858 954.701 552.812 954.646 552.745Z" fill="white" fill-opacity="0.1"/>
<path d="M815.816 542.424C815.568 542.113 815.95 541.725 816.415 541.814C816.516 541.835 816.598 541.881 816.653 541.948C816.908 542.257 816.518 542.647 816.053 542.557C815.952 542.537 815.87 542.491 815.816 542.424Z" fill="white" fill-opacity="0.1"/>
<path d="M981.692 524.794C981.444 524.484 981.826 524.095 982.291 524.185C982.392 524.205 982.474 524.251 982.529 524.318C982.784 524.628 982.394 525.017 981.929 524.928C981.828 524.908 981.746 524.862 981.692 524.794Z" fill="white" fill-opacity="0.1"/>
<path d="M347.933 584.498C347.685 584.187 348.067 583.799 348.532 583.888C348.633 583.908 348.715 583.954 348.77 584.022C349.025 584.331 348.635 584.72 348.17 584.631C348.07 584.611 347.988 584.565 347.933 584.498Z" fill="white" fill-opacity="0.1"/>
<path d="M834.107 606.068C833.859 605.757 834.242 605.369 834.709 605.458C834.81 605.478 834.892 605.524 834.947 605.591C835.195 605.902 834.812 606.291 834.345 606.201C834.244 606.181 834.162 606.135 834.107 606.068Z" fill="white" fill-opacity="0.1"/>
<path d="M600.414 661.528C600.166 661.217 600.55 660.829 601.016 660.918C601.117 660.938 601.199 660.984 601.254 661.051C601.502 661.362 601.119 661.75 600.653 661.661C600.551 661.641 600.469 661.595 600.414 661.528Z" fill="white" fill-opacity="0.1"/>
<path d="M824.101 644.546C823.846 644.236 824.236 643.847 824.701 643.937C824.801 643.957 824.883 644.003 824.938 644.07C825.186 644.381 824.804 644.769 824.339 644.679C824.238 644.659 824.156 644.613 824.101 644.546Z" fill="white" fill-opacity="0.8"/>
<path d="M663.216 434.745C663.375 434.376 662.892 434.111 662.47 434.326C662.379 434.374 662.313 434.441 662.279 434.52C662.128 434.888 662.603 435.154 663.025 434.939C663.116 434.891 663.182 434.824 663.216 434.745Z" fill="white" fill-opacity="0.8"/>
<path d="M793.835 493.963C793.987 493.595 793.511 493.329 793.088 493.544C792.996 493.592 792.93 493.659 792.896 493.739C792.744 494.106 793.22 494.372 793.643 494.157C793.735 494.109 793.801 494.042 793.835 493.963Z" fill="white" fill-opacity="0.1"/>
<path d="M742.374 448.892C742.119 448.582 742.508 448.193 742.973 448.282C743.074 448.303 743.156 448.349 743.211 448.416C743.458 448.726 743.076 449.115 742.611 449.025C742.51 449.005 742.428 448.959 742.374 448.892Z" fill="white" fill-opacity="0.8"/>
<path d="M738.024 466.456C737.769 466.147 738.158 465.757 738.623 465.847C738.724 465.867 738.806 465.913 738.861 465.98C739.109 466.291 738.727 466.679 738.261 466.59C738.161 466.569 738.079 466.523 738.024 466.456Z" fill="white" fill-opacity="0.8"/>
<path d="M792.808 414.813C792.553 414.503 792.942 414.114 793.407 414.203C793.508 414.223 793.59 414.269 793.645 414.337C793.892 414.647 793.51 415.036 793.045 414.946C792.944 414.926 792.862 414.88 792.808 414.813Z" fill="white" fill-opacity="0.1"/>
<path d="M672.269 468.135C672.021 467.825 672.404 467.436 672.87 467.526C672.971 467.546 673.054 467.592 673.108 467.659C673.357 467.969 672.973 468.358 672.507 468.268C672.406 468.248 672.324 468.202 672.269 468.135Z" fill="white" fill-opacity="0.1"/>
<path d="M662.263 506.614C662.008 506.304 662.397 505.915 662.862 506.004C662.963 506.025 663.045 506.071 663.1 506.138C663.347 506.448 662.965 506.837 662.5 506.747C662.399 506.727 662.317 506.681 662.263 506.614Z" fill="white" fill-opacity="0.8"/>
<path d="M756.753 566.212C756.498 565.903 756.888 565.513 757.353 565.603C757.454 565.623 757.536 565.669 757.591 565.736C757.838 566.047 757.456 566.435 756.991 566.345C756.89 566.325 756.808 566.279 756.753 566.212Z" fill="white" fill-opacity="0.1"/>
<path d="M1004.77 487.321C1004.52 487.01 1004.9 486.622 1005.36 486.711C1005.47 486.732 1005.55 486.778 1005.6 486.845C1005.86 487.154 1005.47 487.544 1005 487.454C1004.9 487.434 1004.82 487.388 1004.77 487.321Z" fill="white" fill-opacity="0.1"/>
<path d="M1067.9 356.689C1067.48 356.91 1067 356.639 1067.15 356.273C1067.19 356.193 1067.25 356.126 1067.34 356.079C1067.77 355.864 1068.24 356.129 1068.09 356.496C1068.06 356.575 1067.99 356.642 1067.9 356.689Z" fill="white" fill-opacity="0.1"/>
<path d="M590.12 473.603C590.272 473.236 589.796 472.969 589.373 473.185C589.281 473.233 589.215 473.3 589.181 473.379C589.029 473.747 589.505 474.013 589.928 473.798C590.02 473.75 590.086 473.683 590.12 473.603Z" fill="white" fill-opacity="0.8"/>
<path d="M584.569 575.911C584.728 575.543 584.245 575.277 583.823 575.492C583.732 575.54 583.666 575.607 583.632 575.686C583.481 576.054 583.956 576.32 584.378 576.105C584.469 576.057 584.535 575.99 584.569 575.911Z" fill="white" fill-opacity="0.1"/>
<path d="M528.524 489.451C528.676 489.084 528.201 488.817 527.779 489.033C527.688 489.08 527.622 489.147 527.588 489.227C527.429 489.595 527.912 489.861 528.333 489.646C528.425 489.598 528.491 489.531 528.524 489.451Z" fill="white" fill-opacity="0.1"/>
<path d="M606.178 501.349C606.33 500.982 605.854 500.715 605.431 500.931C605.339 500.978 605.273 501.045 605.239 501.125C605.087 501.492 605.564 501.759 605.987 501.543C606.078 501.496 606.144 501.429 606.178 501.349Z" fill="white" fill-opacity="0.1"/>
<path d="M365.652 580.907C365.811 580.539 365.329 580.273 364.907 580.488C364.816 580.536 364.75 580.603 364.716 580.683C364.564 581.05 365.039 581.316 365.461 581.101C365.552 581.054 365.618 580.987 365.652 580.907Z" fill="white" fill-opacity="0.1"/>
<path d="M541 611.451C541.159 611.083 540.676 610.817 540.254 611.032C540.163 611.08 540.097 611.147 540.063 611.226C539.912 611.594 540.387 611.86 540.809 611.645C540.9 611.597 540.966 611.53 541 611.451Z" fill="white" fill-opacity="0.1"/>
<path d="M699.255 602.078C699.407 601.711 698.932 601.444 698.51 601.66C698.419 601.707 698.353 601.774 698.319 601.854C698.16 602.222 698.643 602.488 699.064 602.273C699.156 602.225 699.222 602.158 699.255 602.078Z" fill="white" fill-opacity="0.1"/>
<path d="M616.809 441.054C616.968 440.686 616.485 440.42 616.064 440.636C615.972 440.683 615.906 440.75 615.872 440.83C615.721 441.197 616.196 441.464 616.618 441.248C616.709 441.201 616.775 441.134 616.809 441.054Z" fill="white" fill-opacity="0.8"/>
<path d="M626.2 542.902C626.351 542.534 625.876 542.268 625.454 542.483C625.363 542.531 625.297 542.598 625.263 542.677C625.104 543.045 625.587 543.311 626.009 543.096C626.1 543.048 626.166 542.981 626.2 542.902Z" fill="white" fill-opacity="0.1"/>
<path d="M486.18 502.547C486.331 502.181 485.856 501.915 485.434 502.13C485.343 502.177 485.277 502.244 485.243 502.324C485.084 502.691 485.567 502.961 485.988 502.741C486.08 502.693 486.146 502.627 486.18 502.547Z" fill="white" fill-opacity="0.1"/>
<path d="M437.437 649.62C437.589 649.253 437.113 648.986 436.692 649.202C436.6 649.249 436.535 649.316 436.501 649.396C436.342 649.764 436.824 650.03 437.246 649.815C437.337 649.767 437.403 649.7 437.437 649.62Z" fill="white" fill-opacity="0.1"/>
<path d="M614.375 525.069C613.908 524.974 613.526 525.367 613.774 525.677C613.828 525.744 613.911 525.79 614.012 525.81C614.478 525.899 614.861 525.511 614.613 525.202C614.558 525.135 614.476 525.089 614.375 525.069Z" fill="white" fill-opacity="0.1"/>
<path d="M563.461 494.393C563.612 494.026 563.137 493.759 562.716 493.974C562.624 494.022 562.558 494.089 562.525 494.168C562.366 494.537 562.848 494.802 563.27 494.587C563.361 494.539 563.427 494.472 563.461 494.393Z" fill="white" fill-opacity="0.1"/>
<path d="M600.254 466.213C600.413 465.845 599.931 465.58 599.509 465.795C599.418 465.842 599.352 465.909 599.318 465.989C599.166 466.356 599.641 466.623 600.063 466.408C600.154 466.36 600.22 466.293 600.254 466.213Z" fill="white" fill-opacity="0.1"/>
<path d="M589.454 624.984C589.606 624.617 589.13 624.35 588.707 624.566C588.615 624.613 588.549 624.68 588.515 624.76C588.363 625.127 588.839 625.394 589.262 625.178C589.354 625.131 589.42 625.064 589.454 624.984Z" fill="white" fill-opacity="0.1"/>
<path d="M370.433 524.157C370.178 523.847 370.568 523.458 371.033 523.547C371.134 523.568 371.215 523.614 371.27 523.681C371.518 523.991 371.136 524.38 370.671 524.29C370.57 524.27 370.488 524.224 370.433 524.157Z" fill="white" fill-opacity="0.8"/>
<path d="M620.895 561.619C620.647 561.309 621.029 560.92 621.494 561.01C621.595 561.03 621.677 561.076 621.732 561.143C621.987 561.453 621.597 561.842 621.132 561.752C621.032 561.732 620.95 561.686 620.895 561.619Z" fill="white" fill-opacity="0.1"/>
<path d="M594.529 543.552C594.274 543.242 594.664 542.853 595.129 542.942C595.23 542.963 595.312 543.009 595.366 543.076C595.614 543.386 595.232 543.775 594.767 543.685C594.666 543.665 594.584 543.619 594.529 543.552Z" fill="white" fill-opacity="0.8"/>
<path d="M645.334 591.991C645.086 591.68 645.468 591.292 645.933 591.381C646.034 591.402 646.116 591.448 646.171 591.515C646.426 591.824 646.036 592.214 645.571 592.124C645.47 592.104 645.389 592.058 645.334 591.991Z" fill="white" fill-opacity="0.1"/>
<path d="M686.282 559.614C685.859 559.829 685.383 559.563 685.535 559.195C685.569 559.116 685.635 559.049 685.727 559.001C686.149 558.786 686.626 559.052 686.474 559.419C686.44 559.499 686.374 559.566 686.282 559.614Z" fill="white" fill-opacity="0.8"/>
<path d="M658.732 538.708C658.31 538.928 657.833 538.657 657.985 538.291C658.019 538.211 658.085 538.144 658.177 538.097C658.6 537.882 659.076 538.147 658.924 538.514C658.89 538.593 658.824 538.66 658.732 538.708Z" fill="white" fill-opacity="0.1"/>
<path d="M569.346 455.82C569.098 455.51 569.481 455.121 569.947 455.211C570.049 455.231 570.131 455.277 570.186 455.344C570.434 455.654 570.05 456.043 569.584 455.954C569.483 455.933 569.401 455.887 569.346 455.82Z" fill="white" fill-opacity="0.1"/>
<path d="M462.166 610.322C461.911 610.013 462.3 609.619 462.766 609.714C462.867 609.734 462.949 609.78 463.003 609.847C463.251 610.156 462.869 610.544 462.404 610.455C462.303 610.435 462.221 610.389 462.166 610.322Z" fill="white" fill-opacity="0.1"/>
<path d="M383.503 542.581C383.255 542.271 383.638 541.882 384.105 541.971C384.206 541.992 384.288 542.038 384.343 542.105C384.591 542.415 384.208 542.804 383.741 542.714C383.64 542.694 383.558 542.648 383.503 542.581Z" fill="white" fill-opacity="0.8"/>
<path d="M640.491 486.195C640.243 485.884 640.626 485.496 641.091 485.585C641.191 485.606 641.273 485.652 641.328 485.719C641.583 486.028 641.194 486.418 640.729 486.328C640.628 486.308 640.546 486.262 640.491 486.195Z" fill="white" fill-opacity="0.1"/>
<path d="M393.012 568.446C392.757 568.137 393.146 567.747 393.611 567.837C393.712 567.857 393.794 567.903 393.849 567.97C394.096 568.281 393.714 568.669 393.249 568.58C393.148 568.559 393.066 568.514 393.012 568.446Z" fill="white" fill-opacity="0.1"/>
<path d="M590.622 507.128C590.374 506.819 590.756 506.431 591.221 506.52C591.322 506.541 591.404 506.586 591.459 506.653C591.714 506.962 591.325 507.356 590.859 507.261C590.758 507.241 590.676 507.195 590.622 507.128Z" fill="white" fill-opacity="0.1"/>
<path d="M480.58 635.055C480.332 634.745 480.715 634.356 481.181 634.445C481.282 634.466 481.365 634.512 481.419 634.579C481.668 634.889 481.284 635.278 480.818 635.188C480.717 635.168 480.635 635.122 480.58 635.055Z" fill="white" fill-opacity="0.1"/>
<path d="M718.215 509.479C717.793 509.7 717.316 509.428 717.468 509.062C717.502 508.983 717.568 508.916 717.66 508.868C718.083 508.653 718.559 508.919 718.407 509.285C718.373 509.365 718.306 509.432 718.215 509.479Z" fill="white" fill-opacity="0.1"/>
<path d="M366.146 555.155C365.891 554.846 366.281 554.456 366.746 554.546C366.846 554.566 366.928 554.612 366.983 554.679C367.231 554.99 366.849 555.378 366.384 555.289C366.283 555.268 366.201 555.222 366.146 555.155Z" fill="white" fill-opacity="0.1"/>
<path d="M584.749 636.53C584.494 636.22 584.884 635.831 585.349 635.92C585.449 635.941 585.531 635.987 585.586 636.054C585.834 636.364 585.452 636.753 584.987 636.663C584.886 636.643 584.804 636.597 584.749 636.53Z" fill="white" fill-opacity="0.1"/>
<path d="M488.176 646.387C487.921 646.077 488.31 645.688 488.775 645.777C488.876 645.798 488.958 645.844 489.013 645.911C489.26 646.221 488.878 646.61 488.413 646.52C488.312 646.5 488.231 646.454 488.176 646.387Z" fill="white" fill-opacity="0.8"/>
<path d="M576.826 609.17C576.571 608.86 576.96 608.471 577.425 608.56C577.526 608.58 577.608 608.626 577.663 608.694C577.91 609.004 577.528 609.392 577.063 609.303C576.962 609.283 576.88 609.237 576.826 609.17Z" fill="white" fill-opacity="0.1"/>
<path d="M452.595 565.328C452.34 565.019 452.729 564.629 453.194 564.719C453.295 564.739 453.377 564.785 453.432 564.852C453.679 565.163 453.297 565.551 452.832 565.462C452.731 565.441 452.649 565.395 452.595 565.328Z" fill="white" fill-opacity="0.1"/>
<path d="M566.937 547.497C566.682 547.188 567.071 546.798 567.536 546.888C567.637 546.908 567.719 546.954 567.774 547.021C568.021 547.332 567.639 547.72 567.174 547.631C567.073 547.61 566.991 547.564 566.937 547.497Z" fill="white" fill-opacity="0.1"/>
<path d="M506.722 602.486C506.474 602.175 506.857 601.787 507.323 601.876C507.425 601.896 507.507 601.942 507.562 602.009C507.81 602.32 507.426 602.708 506.96 602.619C506.859 602.599 506.777 602.553 506.722 602.486Z" fill="white" fill-opacity="0.1"/>
<path d="M526.837 407.138C526.988 406.771 526.513 406.504 526.092 406.72C526 406.767 525.934 406.834 525.901 406.914C525.742 407.282 526.224 407.548 526.646 407.333C526.737 407.285 526.803 407.218 526.837 407.138Z" fill="white" fill-opacity="0.1"/>
<path d="M506.667 478.518C506.818 478.151 506.343 477.884 505.922 478.1C505.83 478.147 505.765 478.214 505.731 478.294C505.572 478.662 506.054 478.928 506.476 478.712C506.567 478.665 506.633 478.598 506.667 478.518Z" fill="white" fill-opacity="0.8"/>
<path d="M407.674 456.366C407.426 456.056 407.808 455.667 408.273 455.757C408.374 455.777 408.456 455.823 408.511 455.89C408.766 456.2 408.376 456.589 407.911 456.5C407.81 456.479 407.728 456.433 407.674 456.366Z" fill="white" fill-opacity="0.1"/>
<path d="M488.799 447.794C488.551 447.483 488.934 447.095 489.401 447.184C489.502 447.204 489.584 447.25 489.639 447.318C489.887 447.628 489.504 448.017 489.037 447.927C488.936 447.907 488.854 447.861 488.799 447.794Z" fill="white" fill-opacity="0.1"/>
<path d="M540.807 462.126C540.552 461.816 540.941 461.427 541.406 461.516C541.507 461.536 541.589 461.582 541.644 461.65C541.891 461.96 541.509 462.349 541.044 462.259C540.943 462.239 540.861 462.193 540.807 462.126Z" fill="white" fill-opacity="0.1"/>
<path d="M444.233 471.982C443.978 471.673 444.368 471.283 444.833 471.373C444.934 471.393 445.016 471.439 445.07 471.506C445.318 471.817 444.936 472.205 444.471 472.115C444.37 472.095 444.288 472.049 444.233 471.982Z" fill="white" fill-opacity="0.8"/>
<path d="M532.883 434.765C532.628 434.456 533.018 434.066 533.483 434.156C533.584 434.176 533.666 434.222 533.72 434.289C533.968 434.6 533.586 434.988 533.121 434.899C533.02 434.878 532.938 434.832 532.883 434.765Z" fill="white" fill-opacity="0.1"/>
<path d="M462.78 428.081C462.532 427.771 462.915 427.382 463.381 427.471C463.482 427.492 463.564 427.538 463.619 427.605C463.867 427.915 463.484 428.304 463.018 428.214C462.917 428.194 462.835 428.148 462.78 428.081Z" fill="white" fill-opacity="0.1"/>
<path d="M345.139 611.667C344.891 611.357 345.274 610.968 345.74 611.058C345.842 611.078 345.924 611.124 345.979 611.191C346.227 611.502 345.843 611.89 345.377 611.801C345.276 611.781 345.194 611.735 345.139 611.667Z" fill="white" fill-opacity="0.8"/>
<path d="M204.696 449.502C204.448 449.191 204.831 448.803 205.297 448.892C205.398 448.912 205.48 448.958 205.535 449.026C205.783 449.336 205.4 449.725 204.934 449.635C204.833 449.615 204.751 449.569 204.696 449.502Z" fill="white" fill-opacity="0.1"/>
<path d="M439.716 377.64C439.469 377.33 439.851 376.943 440.316 377.032C440.417 377.052 440.499 377.098 440.554 377.165C440.808 377.474 440.42 377.868 439.954 377.773C439.853 377.753 439.771 377.707 439.716 377.64Z" fill="white" fill-opacity="0.1"/>
<path d="M331.436 378.724C331.188 378.414 331.572 378.025 332.038 378.114C332.139 378.135 332.221 378.181 332.276 378.248C332.524 378.558 332.141 378.947 331.675 378.857C331.573 378.837 331.491 378.791 331.436 378.724Z" fill="white" fill-opacity="0.1"/>
<path d="M335.252 408.647C334.997 408.338 335.387 407.948 335.852 408.038C335.953 408.058 336.035 408.104 336.09 408.171C336.337 408.482 335.955 408.87 335.49 408.78C335.389 408.76 335.307 408.714 335.252 408.647Z" fill="white" fill-opacity="0.1"/>
<path d="M500.355 390.604C500.1 390.295 500.49 389.905 500.955 389.995C501.056 390.015 501.138 390.061 501.193 390.128C501.44 390.439 501.058 390.827 500.593 390.737C500.492 390.717 500.41 390.671 500.355 390.604Z" fill="white" fill-opacity="0.1"/>
<path d="M255.435 493.882C255.187 493.571 255.57 493.183 256.036 493.272C256.137 493.292 256.22 493.338 256.274 493.405C256.523 493.716 256.139 494.104 255.673 494.015C255.572 493.995 255.49 493.949 255.435 493.882Z" fill="white" fill-opacity="0.1"/>
<path d="M202.327 491.748C202.08 491.437 202.462 491.049 202.927 491.139C203.028 491.159 203.11 491.205 203.165 491.272C203.42 491.581 203.03 491.971 202.565 491.881C202.464 491.861 202.382 491.815 202.327 491.748Z" fill="white" fill-opacity="0.1"/>
</g>
</g>
<defs>
<filter id="filter0_f_25_2086" x="151.828" y="158" width="1092.32" height="655.291" filterUnits="userSpaceOnUse" color-interpolation-filters="sRGB">
<feFlood flood-opacity="0" result="BackgroundImageFix"/>
<feBlend mode="normal" in="SourceGraphic" in2="BackgroundImageFix" result="shape"/>
<feGaussianBlur stdDeviation="90" result="effect1_foregroundBlur_25_2086"/>
</filter>
<radialGradient id="paint0_radial_25_2086" cx="0" cy="0" r="1" gradientUnits="userSpaceOnUse" gradientTransform="translate(473.5 504) rotate(90) scale(267.5 267.5)">
<stop stop-color="white" stop-opacity="0.08"/>
<stop offset="1" stop-color="white" stop-opacity="0"/>
</radialGradient>
<clipPath id="clip0_25_2086">
<rect width="1369" height="945" fill="white"/>
</clipPath>
</defs>
</svg>
